<svg width="32" height="32" viewBox="0 0 32 32" fill="none" xmlns="http://www.w3.org/2000/svg">
<g clip-path="url(#clip0_712_2)">
<path fill-rule="evenodd" clip-rule="evenodd" d="M3.5 4C2.57174 4 1.6815 4.36875 1.02513 5.02513C0.368748 5.6815 -1.12095e-06 6.57174 -1.12095e-06 7.5L-1.12093e-06 8.972C-0.000325147 8.99 -0.000325147 9.008 -1.12095e-06 9.026L-1.12093e-06 24.5C-1.12093e-06 26.432 1.568 28 3.5 28H28.5C29.4283 28 30.3185 27.6313 30.9749 26.9749C31.6312 26.3185 32 25.4283 32 24.5V7.5C32 6.57174 31.6312 5.6815 30.9749 5.02513C30.3185 4.36875 29.4283 4 28.5 4H3.5ZM29 8.14V7.5C29 7.36739 28.9473 7.24021 28.8536 7.14645C28.7598 7.05268 28.6326 7 28.5 7H3.5C3.36739 7 3.24021 7.05268 3.14645 7.14645C3.05268 7.24021 3 7.36739 3 7.5V8.14L16 15.76L29 8.14ZM3 11.62V24.502C3 24.778 3.224 25.002 3.5 25.002H28.5C28.6326 25.002 28.7598 24.9493 28.8536 24.8556C28.9473 24.7618 29 24.6346 29 24.502V11.618L16.76 18.794C16.5296 18.9294 16.2672 19.0008 16 19.0008C15.7328 19.0008 15.4704 18.9294 15.24 18.794L3 11.618V11.62Z" fill="white"/>
</g>
<defs>
<clipPath id="clip0_712_2">
<rect width="32" height="32" fill="white"/>
</clipPath>
</defs>
</svg>
